<svg width="20" height="14" viewBox="0 0 20 14" fill="none" xmlns="http://www.w3.org/2000/svg">
<path fill-rule="evenodd" clip-rule="evenodd" d="M14.5999 7.0309C13.1751 6.62062 11.6447 6.80682 10.3598 7.54678C8.62382 8.54652 6.53631 8.73325 4.65046 8.05748L2.26491 7.20266C1.91126 7.07594 1.72729 6.68651 1.85402 6.33285C1.98075 5.9792 2.37017 5.79523 2.72383 5.92196L5.10938 6.77678C6.61939 7.31787 8.29086 7.16836 9.68087 6.36786C11.2856 5.44372 13.1969 5.21118 14.9764 5.72358L17.194 6.36213C17.555 6.46608 17.7634 6.84301 17.6594 7.20401C17.5555 7.56502 17.1785 7.77341 16.8175 7.66946L14.5999 7.0309Z" fill="none"/>
<path fill-rule="evenodd" clip-rule="evenodd" d="M15.7878 12.456C13.9809 12.039 12.0614 12.2426 10.373 13.0191C8.25559 13.9929 5.832 14.1884 3.58747 13.545L0.49295 12.6579C0.13182 12.5544 -0.0770116 12.1777 0.0265124 11.8166C0.130036 11.4555 0.506713 11.2466 0.867843 11.3501L3.96236 12.2372C5.88985 12.7898 7.97895 12.6227 9.80458 11.7831C11.7629 10.8825 13.9896 10.6448 16.0937 11.1304L18.9726 11.7947C19.3386 11.8792 19.5669 12.2444 19.4824 12.6105C19.398 12.9765 19.0327 13.2048 18.6667 13.1203L15.7878 12.456Z" fill="none"/>
<path fill-rule="evenodd" clip-rule="evenodd" d="M15.7878 1.57242C13.9809 1.15543 12.0614 1.3591 10.373 2.13559C8.25559 3.10938 5.832 3.3049 3.58747 2.66147L0.49295 1.77437C0.13182 1.67085 -0.0770116 1.29417 0.0265124 0.933039C0.130036 0.571909 0.506713 0.363078 0.867843 0.466602L3.96236 1.3537C5.88985 1.90624 7.97895 1.73918 9.80458 0.89959C11.7629 -0.00102502 13.9896 -0.238753 16.0937 0.246815L18.9726 0.911165C19.3386 0.99564 19.5669 1.36087 19.4824 1.72692C19.398 2.09298 19.0327 2.32124 18.6667 2.23677L15.7878 1.57242Z" fill="none"/>
</svg>