<svg xmlns="http://www.w3.org/2000/svg" fill="white" height="24" viewBox="0 -960 960 960" width="24"><path d="M480-143.077q-25.846 0-43.692-17.846-17.847-17.846-17.847-43.692 0-25.847 17.847-43.693 17.846-17.846 43.692-17.846t43.693 17.846q17.846 17.846 17.846 43.693 0 25.846-17.846 43.692-17.847 17.846-43.693 17.846ZM254-346l-40.923-41.385q52.077-52.077 120.166-81.577 68.09-29.5 146.885-29.5 78.795 0 146.757 29.616 67.961 29.615 120.038 81.923L706-346q-44-44-102-69t-124-25q-66 0-124 25t-102 69ZM84-516l-40.923-40.923q83.538-84 195-132.77Q349.538-738.462 480-738.462t241.923 48.769q111.462 48.77 195 132.77L876-516q-77-77-178.5-120.5T480-680q-116 0-217.5 43.5T84-516Z"/></svg>