<svg width="21" height="20" viewBox="0 0 21 20" fill="none" xmlns="http://www.w3.org/2000/svg">
<path d="M6.40462 13.3569C0.312017 13.0112 0.321895 6.20885 5.62346 5.27986C5.70354 5.26582 5.77149 5.20235 5.7919 5.12365C7.667 -2.1087 19.0215 1.16227 16.6965 7.3394C16.6444 7.4778 16.7461 7.63561 16.8939 7.64258C20.4351 7.80953 21.0371 13.0527 16.5728 13.375" stroke="none" stroke-width="1.5" stroke-linecap="round"/>
<path d="M10.5732 11.5188L11.5056 12.7L12.4381 11.5188M13.9482 12.4244L13.4454 13.8675L14.8806 14.1294M9.08134 12.4244L9.58413 13.8675L8.14893 14.1294M9.08134 17.6612L9.58413 16.2181L8.14893 15.9563M13.9665 17.7519L13.4637 16.3087L14.8989 16.0469M10.5732 18.6063L11.5056 17.425L12.4381 18.6063M11.5056 11.125L11.5056 19M14.7356 13.0938L8.27564 17.0313M14.7621 17.0592L8.30215 13.1217" stroke="none" stroke-linecap="round"/>
</svg>