				<svg width="24" height="20" viewBox="0 0 24 20" fill="none" xmlns="http://www.w3.org/2000/svg">
				<path d="M17.5 11.78C17.5 10.3213 16.9205 8.92236 15.8891 7.89091C14.8576 6.85946 13.4587 6.28 12 6.28C10.5413 6.28 9.14236 6.85946 8.11091 7.89091C7.07946 8.92236 6.5 10.3213 6.5 11.78" stroke="white" stroke-width="1.5" stroke-linecap="round"/>
				<path d="M14.4751 15.6823L12.3551 13.5658C12.1604 13.3714 11.845 13.3714 11.6503 13.5658L9.53027 15.6823M12.0074 13.5247L12.0074 19.2215" stroke="white" stroke-width="1.5" stroke-linecap="round"/>
				<path d="M18.4258 5.35418L19.7 4.08001M12 2.68668V0.78M1 11.78H2.83333M21.1667 11.78H23M5.57417 5.35418L4.3 4.08002" stroke="white" stroke-width="1.5" stroke-linecap="round" stroke-linejoin="round"/>
				</svg>