<svg width="24" height="24" viewBox="0 0 24 24" fill="none" xmlns="http://www.w3.org/2000/svg">
<path d="M17.5 13.78C17.5 12.3213 16.9205 10.9224 15.8891 9.89091C14.8576 8.85946 13.4587 8.28 12 8.28C10.5413 8.28 9.14236 8.85946 8.11091 9.89091C7.07946 10.9224 6.5 12.3213 6.5 13.78" stroke="white" stroke-width="1.5" stroke-linecap="round"/>
<path d="M18.4258 7.35418L19.7 6.08001M12 4.68668V2.78M1 13.78H2.83333M21.1667 13.78H23M5.57417 7.35418L4.3 6.08002" stroke="white" stroke-width="1.5" stroke-linecap="round" stroke-linejoin="round"/>
<path d="M14.7449 18.9693L12.6249 21.0858C12.4302 21.2802 12.1148 21.2802 11.92 21.0858L9.80005 18.9693M12.2771 21.1268L12.2771 15.43" stroke="white" stroke-width="1.5" stroke-linecap="round"/>
</svg>