<svg width="20" height="19" viewBox="0 0 20 19" fill="none" xmlns="http://www.w3.org/2000/svg">
<path d="M15.2714 13.4214C14.1797 14.5132 12.7951 15.8151 11.1157 17.3282C11.1156 17.3283 11.1155 17.3284 11.1153 17.3285L10 18.3285L8.88469 17.3285C8.88454 17.3284 8.8844 17.3283 8.88426 17.3282C7.20494 15.8151 5.82026 14.5132 4.72855 13.4214C3.63918 12.3321 2.78211 11.3634 2.15137 10.5143C1.52024 9.66474 1.09558 8.90518 0.859094 8.23387C0.619291 7.55314 0.5 6.85927 0.5 6.15C0.5 4.70783 0.977907 3.5292 1.92855 2.57855C2.8792 1.62791 4.05783 1.15 5.5 1.15C6.29356 1.15 7.04619 1.3173 7.76303 1.65285C8.48066 1.98876 9.09824 2.46113 9.61903 3.07383L10 3.52203L10.381 3.07383C10.9018 2.46113 11.5193 1.98876 12.237 1.65285C12.9538 1.3173 13.7064 1.15 14.5 1.15C15.9422 1.15 17.1208 1.62791 18.0714 2.57855C19.0221 3.5292 19.5 4.70783 19.5 6.15C19.5 6.85927 19.3807 7.55314 19.1409 8.23387C18.9044 8.90518 18.4798 9.66474 17.8486 10.5143C17.2179 11.3634 16.3608 12.3321 15.2714 13.4214Z" fill="black" stroke="black"/>
</svg>